<svg
  width="65"
  height="38"
  viewBox="0 0 65 38"
  fill="currentColor"
  xmlns="http://www.w3.org/2000/svg"
>
  <path
    d="M36.9608 19C36.9608 29.4934 28.6868 38 18.4804 38C8.27395 38 0 29.4934 0 19C0 8.50659 8.27395 0 18.4804 0C28.6868 0 36.9608 8.50659 36.9608 19Z"
  />
  <path
    d="M57.3529 19.3276C57.3529 29.2782 53.0733 37.3448 47.7941 37.3448C42.5149 37.3448 38.2353 29.2782 38.2353 19.3276C38.2353 9.37694 42.5149 1.31034 47.7941 1.31034C53.0733 1.31034 57.3529 9.37694 57.3529 19.3276Z"
  />
  <path
    d="M65 19.3276C65 28.1927 63.5735 35.3793 61.8137 35.3793C60.054 35.3793 58.6275 28.1927 58.6275 19.3276C58.6275 10.4625 60.054 3.27586 61.8137 3.27586C63.5735 3.27586 65 10.4625 65 19.3276Z"
  />
</svg>
